<?xml version="1.0" encoding="UTF-8"?>
<svg width="752pt" height="752pt" version="1.1" viewBox="0 0 752 752" xmlns="http://www.w3.org/2000/svg">
 <g>
  <path d="m508.43 510.39c1.2617-2.6602 2.0273-5.6016 2.0273-8.7383 0-8.8945-5.7188-16.414-13.648-19.258v-25.871c0-3.7891-3.0703-6.8633-6.8633-6.8633s-6.8633 3.0742-6.8633 6.8633v25.875c-7.8594 2.8477-13.527 10.367-13.527 19.254 0 11.324 9.1367 20.535 20.371 20.535 3.168 0 6.1367-0.78125 8.8203-2.0703l8.3594 8.3125c2.6797 2.668 7.0312 2.668 9.707-0.027344 2.6758-2.6875 2.6602-7.0352-0.027344-9.707zm-25.148-8.7383c0-3.75 2.9805-6.8008 6.6367-6.8047 0.011719 0 0.015625 0.003906 0.027344 0.003906h0.007812c3.8008 0.015626 6.7773 2.9922 6.7773 6.8008 0 3.6914-3.1172 6.8086-6.8047 6.8086-3.6016 0-6.6445-3.1172-6.6445-6.8086z"/>
  <path d="m163.77 442.34c0 1.8555 0.70703 3.7812 2.0117 5.082l59 58.922c1.25 1.3125 2.9922 2.1484 4.9492 2.1484h166.59c3.5391 48.629 44.137 87.137 93.648 87.137 49.664 0 90.352-38.742 93.68-87.578 2.6562-0.94531 4.582-3.4219 4.582-6.4023 0-10.504-0.011719-246.26-0.011719-311.62 0-3.7891-3.0703-6.8633-6.8633-6.8633h-19.59c-3.1914-15.277-16.797-26.797-33.051-26.797-16.207 0-29.77 11.52-32.949 26.797h-35.859c-3.1875-15.277-16.789-26.797-33.043-26.797-16.207 0-29.77 11.52-32.949 26.797h-35.859c-3.1875-15.277-16.789-26.797-33.043-26.797-16.207 0-29.77 11.52-32.949 26.797h-35.859c-3.1875-15.277-16.793-26.797-33.047-26.797-16.207 0-29.77 11.52-32.949 26.797h-19.586c-3.793 0-6.8633 3.0742-6.8633 6.8633 0 32.008 0.007813 247.19 0.007813 252.31zm387.56 110.94-3.5508-3.5469c-2.6797-2.6797-7.0234-2.6797-9.707 0-2.6797 2.6797-2.6797 7.0273 0 9.707l3.5508 3.5469c-12.328 10.395-27.809 17.125-44.793 18.57v-5.0352c0-3.7891-3.0703-6.8633-6.8633-6.8633-3.793 0-6.8633 3.0742-6.8633 6.8633v5.0352c-16.98-1.4492-32.461-8.1758-44.789-18.57l3.5469-3.5469c2.6797-2.6797 2.6797-7.0273 0-9.707-2.6797-2.6797-7.0234-2.6797-9.707 0l-3.5469 3.5469c-10.395-12.328-17.117-27.809-18.566-44.789h5.0352c3.793 0 6.8633-3.0742 6.8633-6.8633 0-3.7891-3.0703-6.8633-6.8633-6.8633h-5.0273c1.4492-16.98 8.1758-32.461 18.566-44.789l3.5469 3.5469c2.6797 2.6797 7.0234 2.6797 9.707 0 2.6797-2.6758 2.6797-7.0234 0-9.707l-3.5469-3.5469c12.324-10.395 27.805-17.121 44.785-18.57v5.0352c0 3.7891 3.0703 6.8633 6.8633 6.8633 3.793 0 6.8633-3.0742 6.8633-6.8633v-5.0352c16.98 1.4492 32.461 8.1758 44.789 18.57l-3.5508 3.5469c-2.6797 2.6758-2.6797 7.0234 0 9.707 2.6797 2.6797 7.0234 2.6797 9.707 0l3.5508-3.5469c10.395 12.328 17.121 27.809 18.57 44.789h-5.0352c-3.793 0-6.8633 3.0742-6.8633 6.8633 0 3.7891 3.0703 6.8633 6.8633 6.8633h5.0352c-1.4492 16.98-8.1758 32.461-18.57 44.789zm23.176-304.19v211.69c-15.238-31.398-47.352-53.152-84.535-53.152-49.516 0-90.113 38.516-93.652 87.145h-159.69v-52.199c0-0.070313-0.039063-0.12891-0.039063-0.19922v-0.027344c0-3.7891-3.0703-6.8633-6.8633-6.8633l-52.234-0.003906v-186.39zm-351.64 200.34v35.598l-35.645-35.598zm305.85-279.34c8.6133 0 15.91 5.4648 18.734 13.07h-37.379c2.8164-7.6055 10.074-13.07 18.645-13.07zm-101.85 0c8.6133 0 15.91 5.4648 18.734 13.07h-37.379c2.8164-7.6055 10.074-13.07 18.645-13.07zm-101.85 0c8.6133 0 15.91 5.4648 18.734 13.07h-37.379c2.8125-7.6055 10.07-13.07 18.645-13.07zm-101.86 0c8.6133 0 15.91 5.4648 18.734 13.07h-37.379c2.8164-7.6055 10.074-13.07 18.645-13.07zm18.734 26.797c-2.8242 7.6055-10.121 13.07-18.734 13.07-3.793 0-6.8633 3.0742-6.8633 6.8633s3.0703 6.8633 6.8633 6.8633c16.254 0 29.855-11.52 33.047-26.797h87.543c-2.8242 7.6055-10.121 13.07-18.734 13.07-3.793 0-6.8633 3.0742-6.8633 6.8633s3.0703 6.8633 6.8633 6.8633c16.254 0 29.855-11.52 33.047-26.797h87.543c-2.8242 7.6055-10.121 13.07-18.734 13.07-3.793 0-6.8633 3.0742-6.8633 6.8633s3.0703 6.8633 6.8633 6.8633c16.254 0 29.855-11.52 33.047-26.797h87.539c-2.8242 7.6055-10.121 13.07-18.734 13.07-3.793 0-6.8633 3.0742-6.8633 6.8633s3.0703 6.8633 6.8633 6.8633c16.254 0 29.855-11.52 33.047-26.797h12.727v38.453h-397.01v-38.453z"/>
  <path d="m275.55 310.42h42.301c3.793 0 6.8633-3.0742 6.8633-6.8633v-35.641c0-3.7891-3.0703-6.8633-6.8633-6.8633h-42.301c-3.793 0-6.8633 3.0742-6.8633 6.8633v35.641c0 3.7891 3.0703 6.8633 6.8633 6.8633zm6.8633-35.645h28.574v21.914h-28.574z"/>
  <path d="m354.8 310.42h42.309c3.793 0 6.8633-3.0742 6.8633-6.8633v-35.641c0-3.7891-3.0703-6.8633-6.8633-6.8633h-42.309c-3.793 0-6.8633 3.0742-6.8633 6.8633v35.641c0 3.7891 3.0703 6.8633 6.8633 6.8633zm6.8633-35.645h28.578v21.914h-28.578z"/>
  <path d="m434.06 310.42h42.301c3.793 0 6.8633-3.0742 6.8633-6.8633v-35.641c0-3.7891-3.0703-6.8633-6.8633-6.8633h-42.301c-3.793 0-6.8633 3.0742-6.8633 6.8633v35.641c0 3.7891 3.0703 6.8633 6.8633 6.8633zm6.8633-35.645h28.574v21.914h-28.574z"/>
  <path d="m513.32 310.42h42.309c3.793 0 6.8633-3.0742 6.8633-6.8633v-35.641c0-3.7891-3.0703-6.8633-6.8633-6.8633h-42.309c-3.793 0-6.8633 3.0742-6.8633 6.8633v35.641c0 3.7891 3.0664 6.8633 6.8633 6.8633zm6.8633-35.645h28.578v21.914h-28.578z"/>
  <path d="m196.29 378.79h42.309c3.793 0 6.8633-3.0742 6.8633-6.8633v-35.645c0-3.7891-3.0703-6.8633-6.8633-6.8633h-42.309c-3.793 0-6.8633 3.0742-6.8633 6.8633v35.645c0 3.7891 3.0703 6.8633 6.8633 6.8633zm6.8633-35.645h28.578v21.918h-28.578z"/>
  <path d="m275.55 378.79h42.301c3.793 0 6.8633-3.0742 6.8633-6.8633v-35.645c0-3.7891-3.0703-6.8633-6.8633-6.8633h-42.301c-3.793 0-6.8633 3.0742-6.8633 6.8633v35.645c0 3.7891 3.0703 6.8633 6.8633 6.8633zm6.8633-35.645h28.574v21.918h-28.574z"/>
  <path d="m354.8 378.79h42.309c3.793 0 6.8633-3.0742 6.8633-6.8633v-35.645c0-3.7891-3.0703-6.8633-6.8633-6.8633h-42.309c-3.793 0-6.8633 3.0742-6.8633 6.8633v35.645c0 3.7891 3.0703 6.8633 6.8633 6.8633zm6.8633-35.645h28.578v21.918h-28.578z"/>
  <path d="m434.06 378.79h42.301c3.793 0 6.8633-3.0742 6.8633-6.8633v-35.645c0-3.7891-3.0703-6.8633-6.8633-6.8633h-42.301c-3.793 0-6.8633 3.0742-6.8633 6.8633v35.645c0 3.7891 3.0703 6.8633 6.8633 6.8633zm6.8633-35.645h28.574v21.918h-28.574z"/>
  <path d="m513.32 378.79h42.309c3.793 0 6.8633-3.0742 6.8633-6.8633v-35.645c0-3.7891-3.0703-6.8633-6.8633-6.8633h-42.309c-3.793 0-6.8633 3.0742-6.8633 6.8633v35.645c0 3.7891 3.0664 6.8633 6.8633 6.8633zm6.8633-35.645h28.578v21.918h-28.578z"/>
  <path d="m275.55 440.54h42.301c3.793 0 6.8633-3.0742 6.8633-6.8633v-35.645c0-3.7891-3.0703-6.8633-6.8633-6.8633h-42.301c-3.793 0-6.8633 3.0742-6.8633 6.8633v35.645c0 3.7891 3.0703 6.8633 6.8633 6.8633zm6.8633-35.648h28.574v21.918h-28.574z"/>
  <path d="m354.8 440.54h42.309c3.793 0 6.8633-3.0742 6.8633-6.8633v-35.645c0-3.7891-3.0703-6.8633-6.8633-6.8633h-42.309c-3.793 0-6.8633 3.0742-6.8633 6.8633v35.645c0 3.7891 3.0703 6.8633 6.8633 6.8633zm6.8633-35.648h28.578v21.918h-28.578z"/>
 </g>
</svg>
